<?xml version="1.0" encoding="iso-8859-1"?>
<!-- Generator: Adobe Illustrator 19.0.0, SVG Export Plug-In . SVG Version: 6.00 Build 0)  -->
<svg version="1.1" id="Capa_1" xmlns="http://www.w3.org/2000/svg" xmlns:xlink="http://www.w3.org/1999/xlink" x="0px" y="0px"
	 viewBox="0 0 512 512" style="enable-background:new 0 0 512 512;" xml:space="preserve">
<path style="fill:#7CB777;" d="M481.266,205.161c-1.027,0-2.043,0.058-3.044,0.166C460.565,108.663,367.802,34.937,256,34.937
	S51.435,108.663,33.779,205.327c-1.001-0.108-2.016-0.166-3.044-0.166C13.76,205.161,0,220.234,0,238.827
	s13.76,33.666,30.734,33.666c1.027,0,2.043-0.058,3.044-0.166C51.436,368.992,144.198,442.717,256,442.717
	s204.565-73.725,222.221-170.39c1.001,0.108,2.016,0.166,3.044,0.166c16.974,0,30.734-15.073,30.734-33.666
	S498.24,205.161,481.266,205.161z"/>
<path style="fill:#35925D;" d="M432.449,270.616l34.383-12.616c8.997-3.298,18.802,1.994,21.126,11.293
	c20.484,81.811-23.771,167.842-104.697,197.527c-80.916,29.686-170.313-7.325-207.585-82.977
	c-4.241-8.598-0.184-18.967,8.812-22.274l34.383-12.616l114.591-12.913L432.449,270.616z"/>
<path style="fill:#FADC60;" d="M364.83,416.573c-58.973,21.632-124.315-8.637-145.957-67.619l213.576-78.338
	C454.082,329.588,423.812,394.942,364.83,416.573z"/>
<path style="fill:#EFEDEE;" d="M364.83,416.573c2.439-0.895,4.824-1.871,7.164-2.912l-32.656-89.024l86.043,39.859
	c2.479-4.521,4.648-9.207,6.495-14.021c-4.367-2.023-73.479-34.039-95.958-44.452l-20.514,7.524l-44.452,95.957
	c4.522,2.479,9.208,4.649,14.022,6.496l39.858-86.041l32.656,89.023C359.944,418.264,362.393,417.468,364.83,416.573z"/>
<g>
	<path style="fill:#3A484A;" d="M162.301,238.458c-4.268,0-7.726-3.459-7.726-7.726v-16.958c0-4.267,3.458-7.726,7.726-7.726
		c4.268,0,7.726,3.459,7.726,7.726v16.958C170.027,234.999,166.568,238.458,162.301,238.458z"/>
	<path style="fill:#3A484A;" d="M349.699,238.458c-4.268,0-7.726-3.459-7.726-7.726v-16.958c0-4.267,3.458-7.726,7.726-7.726
		c4.268,0,7.726,3.459,7.726,7.726v16.958C357.425,234.999,353.967,238.458,349.699,238.458z"/>
	<path style="fill:#3A484A;" d="M256,247.509c-11.242,0-21.791-4.692-28.944-12.873c-2.809-3.213-2.481-8.094,0.731-10.902
		c3.214-2.808,8.094-2.481,10.902,0.731c4.218,4.824,10.526,7.59,17.31,7.59c6.784,0,13.093-2.767,17.31-7.59
		c2.808-3.213,7.688-3.54,10.902-0.731c3.212,2.808,3.541,7.689,0.731,10.902C277.791,242.818,267.242,247.509,256,247.509z"/>
</g>
<g>
</g>
<g>
</g>
<g>
</g>
<g>
</g>
<g>
</g>
<g>
</g>
<g>
</g>
<g>
</g>
<g>
</g>
<g>
</g>
<g>
</g>
<g>
</g>
<g>
</g>
<g>
</g>
<g>
</g>
</svg>
