<?xml version="1.0" encoding="iso-8859-1"?>
<!-- Generator: Adobe Illustrator 19.0.0, SVG Export Plug-In . SVG Version: 6.00 Build 0)  -->
<svg version="1.1" id="Capa_1" xmlns="http://www.w3.org/2000/svg" xmlns:xlink="http://www.w3.org/1999/xlink" x="0px" y="0px"
	 viewBox="0 0 512 512" style="enable-background:new 0 0 512 512;" xml:space="preserve">
<path style="fill:#7CB777;" d="M512,165.653c-14.576-26.447-42.715-44.37-75.049-44.37s-60.472,17.923-75.049,44.37
	c14.576,26.447,42.715,44.37,75.049,44.37S497.424,192.1,512,165.653z"/>
<g>
	<path style="fill:#35925D;" d="M361.902,173.382c-3.245,0-6.267-2.06-7.337-5.312c-1.335-4.053,0.868-8.421,4.92-9.756
		c2.726-0.897,67.253-21.731,110.892,0.451c3.803,1.934,5.32,6.585,3.386,10.388c-1.934,3.804-6.587,5.32-10.388,3.387
		c-37.97-19.303-98.448,0.251-99.054,0.451C363.518,173.256,362.703,173.382,361.902,173.382z"/>
	<path style="fill:#35925D;" d="M338.949,179.53c-0.314-0.314-0.617-0.644-0.908-0.99c-5.503-6.536-4.668-16.295,1.865-21.802
		c0.728-0.618,47.939-41.073,54.252-83.59c1.256-8.456,9.128-14.292,17.584-13.037c8.456,1.257,14.292,9.128,13.037,17.584
		c-3.441,23.169-15.501,47.563-35.845,72.507c-14.733,18.063-28.505,29.722-29.084,30.21
		C353.656,185.627,344.57,185.151,338.949,179.53z"/>
</g>
<path style="fill:#FA9F6A;" d="M373.344,145.111c-61.083-61.083-160.118-61.083-221.2,0c-61.382,61.382-47.015,76.201-81.76,110.967
	c-19.258,19.27-46.343,35.777-60.238,60.556C-37.576,401.742,95.33,448.616,154.073,451.68c81.67,4.26,161.59-27.686,219.272-85.37
	C434.426,305.226,434.426,206.192,373.344,145.111z"/>
<path style="fill:#E0712F;" d="M373.344,145.111c-5.245-5.245-10.776-10.029-16.532-14.373
	c46.248,61.283,41.465,148.829-14.371,204.667c-57.682,57.684-137.603,89.629-219.272,85.369
	c-30.06-1.568-79.536-14.609-114.294-38.373c26.199,43.392,103.967,67.128,145.2,69.279c81.67,4.26,161.59-27.686,219.272-85.369
	C434.426,305.226,434.426,206.193,373.344,145.111z"/>
<g>
	<path style="fill:#3A484A;" d="M216.648,185.793c-1.977,0-3.955-0.754-5.464-2.263c-3.017-3.017-3.017-7.91,0-10.926l11.197-11.197
		c3.018-3.017,7.91-3.017,10.927,0c3.017,3.017,3.017,7.91,0,10.926l-11.197,11.197
		C220.603,185.039,218.625,185.793,216.648,185.793z"/>
	<path style="fill:#3A484A;" d="M340.387,309.531c-1.977,0-3.955-0.754-5.464-2.263c-3.017-3.017-3.017-7.91,0-10.926l11.197-11.197
		c3.018-3.017,7.91-3.017,10.927,0c3.017,3.017,3.017,7.91,0,10.926l-11.197,11.197
		C344.342,308.776,342.364,309.531,340.387,309.531z"/>
	<path style="fill:#3A484A;" d="M292.762,262.213c-9.474,0-18.725-3.878-25.686-10.838c-7.529-7.529-11.449-17.737-10.759-28.008
		c0.286-4.258,4.008-7.473,8.227-7.191c4.258,0.285,7.477,3.969,7.191,8.227c-0.391,5.822,1.893,11.67,6.269,16.045
		c4.375,4.375,10.223,6.658,16.044,6.269c4.253-0.289,7.941,2.933,8.227,7.191c0.285,4.258-2.934,7.941-7.191,8.227
		C294.31,262.188,293.535,262.213,292.762,262.213z"/>
</g>
<g>
</g>
<g>
</g>
<g>
</g>
<g>
</g>
<g>
</g>
<g>
</g>
<g>
</g>
<g>
</g>
<g>
</g>
<g>
</g>
<g>
</g>
<g>
</g>
<g>
</g>
<g>
</g>
<g>
</g>
</svg>
